<svg xmlns="http://www.w3.org/2000/svg" viewBox="0 0 24 24"><path d="M12 0c-6.626 0-12 5.373-12 12 0 5.302 3.438 9.8 8.207 11.387.6.111.819-.259.819-.578 0-.285-.01-1.04-.015-2.04-3.338.724-4.042-1.61-4.042-1.61-.542-1.371-1.322-1.735-1.322-1.735-1.087-.744.084-.729.084-.729 1.205.084 1.838 1.236 1.838 1.236 1.07 1.835 2.809 1.305 3.49.997.107-.775.418-1.305.762-1.605-2.665-.3-5.466-1.332-5.466-5.93 0-1.31.465-2.381 1.236-3.221-.124-.3-.535-1.524.117-3.176 0 0 1-.322 3.293 1.235 1.947-.535 4-.535 5.947 0 2.293-1.557 3.292-1.235 3.292-1.235.653 1.653.242 2.876.118 3.176.771.84 1.235 1.911 1.235 3.221 0 4.609-2.807 5.624-5.479 5.921.43.372.823 1.102.823 2.222 0 1.606-.015 2.89-.015 3.286 0 .315.218.69.824.576 4.766-1.584 8.204-6.084 8.204-11.387c0-6.627-5.373-12-12-12z"/></svg>